<svg width="1144" height="280" viewBox="0 0 1144 280" fill="none" xmlns="http://www.w3.org/2000/svg">
<g filter="url(#filter0_b_114_86)">
<path d="M711.317 0.829175C164.477 -13.8549 9.42679 169.925 0 280L1144 280L893.987 71.7915C842.417 28.8443 778.404 2.63065 711.317 0.829175Z" fill="url(#paint0_radial_114_86)"/>
<path d="M711.317 0.829175C164.477 -13.8549 9.42679 169.925 0 280L1144 280L893.987 71.7915C842.417 28.8443 778.404 2.63065 711.317 0.829175Z" fill="url(#paint1_linear_114_86)" fill-opacity="0.6"/>
<path d="M711.317 0.829175C164.477 -13.8549 9.42679 169.925 0 280L1144 280L893.987 71.7915C842.417 28.8443 778.404 2.63065 711.317 0.829175Z" fill="url(#paint2_linear_114_86)" fill-opacity="0.6"/>
</g>
<defs>
<filter id="filter0_b_114_86" x="-1000" y="-1000" width="3144" height="2280" filterUnits="userSpaceOnUse" color-interpolation-filters="sRGB">
<feFlood flood-opacity="0" result="BackgroundImageFix"/>
<feGaussianBlur in="BackgroundImageFix" stdDeviation="500"/>
<feComposite in2="SourceAlpha" operator="in" result="effect1_backgroundBlur_114_86"/>
<feBlend mode="normal" in="SourceGraphic" in2="effect1_backgroundBlur_114_86" result="shape"/>
</filter>
<radialGradient id="paint0_radial_114_86" cx="0" cy="0" r="1" gradientUnits="userSpaceOnUse" gradientTransform="translate(572 -1.38247e-05) rotate(90) scale(437.5 1245.07)">
<stop stop-color="#F8F8F8" stop-opacity="0.47"/>
<stop offset="0.348386" stop-color="#211F1F" stop-opacity="0.41"/>
</radialGradient>
<linearGradient id="paint1_linear_114_86" x1="554.758" y1="-0.120898" x2="578.57" y2="308.107" gradientUnits="userSpaceOnUse">
<stop stop-color="#56CDBF"/>
<stop offset="1" stop-opacity="0"/>
</linearGradient>
<linearGradient id="paint2_linear_114_86" x1="598.5" y1="306.5" x2="525" y2="-185" gradientUnits="userSpaceOnUse">
<stop/>
<stop offset="1" stop-opacity="0"/>
</linearGradient>
</defs>
</svg>
