<svg width="1920" height="521" viewBox="0 0 1920 521" fill="none" xmlns="http://www.w3.org/2000/svg">
<path d="M498.798 246.303C401.174 142.418 124.572 84.1488 0 68V521H1082C928.276 473.885 596.422 350.189 498.798 246.303Z" fill="#D9D9D9"/>
<path d="M498.798 246.303C401.174 142.418 124.572 84.1488 0 68V521H1082C928.276 473.885 596.422 350.189 498.798 246.303Z" fill="url(#paint0_linear_111_554)" fill-opacity="0.6"/>
<path d="M498.798 246.303C401.174 142.418 124.572 84.1488 0 68V521H1082C928.276 473.885 596.422 350.189 498.798 246.303Z" fill="url(#paint1_linear_111_554)" fill-opacity="0.4"/>
<path d="M498.798 246.303C401.174 142.418 124.572 84.1488 0 68V521H1082C928.276 473.885 596.422 350.189 498.798 246.303Z" fill="#D9D9D9"/>
<path d="M498.798 246.303C401.174 142.418 124.572 84.1488 0 68V521H1082C928.276 473.885 596.422 350.189 498.798 246.303Z" fill="url(#paint2_linear_111_554)"/>
<path d="M498.798 246.303C401.174 142.418 124.572 84.1488 0 68V521H1082C928.276 473.885 596.422 350.189 498.798 246.303Z" fill="url(#paint3_linear_111_554)" fill-opacity="0.4"/>
<path d="M1503.26 253.878C1622.99 149.075 1962.22 90.2914 2115 74V531H788C976.532 483.469 1383.53 358.68 1503.26 253.878Z" fill="#D9D9D9"/>
<path d="M1503.26 253.878C1622.99 149.075 1962.22 90.2914 2115 74V531H788C976.532 483.469 1383.53 358.68 1503.26 253.878Z" fill="url(#paint4_linear_111_554)"/>
<path d="M1503.26 253.878C1622.99 149.075 1962.22 90.2914 2115 74V531H788C976.532 483.469 1383.53 358.68 1503.26 253.878Z" fill="url(#paint5_linear_111_554)" fill-opacity="0.4"/>
<g filter="url(#filter0_f_111_554)">
<path d="M-0.504395 72.8613C-0.084557 73.9809 5.57245 74.0131 6.77552 74.1849C13.3423 75.1231 19.8956 77.3285 26.5057 77.3285C29.7809 77.3285 32.5844 77.5698 35.7297 78.0731C38.9329 78.5856 41.0046 79.8892 43.9196 80.4721C49.9235 81.6729 55.5009 83.4877 61.623 84.0707C66.0843 84.4956 71.9428 83.8082 76.2242 85.1462C81.3257 86.7404 87.1959 85.9085 92.3145 87.5039C98.0715 89.2983 105.029 92.9638 111.011 92.9638C123.848 92.9638 136.787 98.2415 149.147 100.988C158.823 103.138 168.796 104.119 178.515 107.11C184.324 108.897 190.368 110.68 196.426 111.577C201.468 112.324 206.329 113.717 211.358 114.555C215.149 115.187 218.278 115.352 220.995 118.278C225.641 123.281 235.775 124.813 241.884 126.303C248.106 127.82 254.27 129.345 260.414 131.101C263.418 131.959 266.611 134.043 269.597 135.237C272.323 136.328 277.035 136.12 279.069 138.381C282.965 142.709 289.756 143.929 294.953 145.909C301.964 148.58 309.357 149.962 316.255 152.361C319.33 153.431 322.135 151.701 324.858 154.016C326.45 155.369 329.894 155.864 331.89 156.953C336.712 159.583 342.77 160.392 347.36 163.281C352.428 166.472 357.846 167.356 363.16 169.817C369.566 172.782 374.845 176.059 380.74 179.744C387.384 183.896 394.841 187.977 402.538 189.588C405.555 190.22 407.835 191.816 410.48 193.311C413.336 194.925 418.021 196.744 420.159 199.06C423.751 202.952 429.193 204.692 433.23 207.995C435.894 210.174 438.783 211.743 441.668 213.579C445.334 215.912 447.762 220.014 450.188 223.506C453.015 227.573 457.954 231.872 462.928 233.681C464.538 234.266 466.844 236.735 468.14 237.859C471.894 241.113 474.295 245.024 477.488 248.572C480.64 252.074 482.775 256.379 485.885 260.03C489.728 264.541 492.179 264.757 496.5 269C504.28 276.639 512.868 281.113 522.5 286.5C528.678 289.955 532.149 295.827 538 299.5C543.215 297.001 551.408 308.262 557.5 313C563.028 317.3 569.532 320.066 575.5 324C581.466 327.932 585.717 330.558 592 334C602.688 331.44 604.743 339.236 613.5 341.06C613.5 333.381 630.392 347.283 631.5 349.5" stroke="#4DE8DF" stroke-width="5" stroke-linecap="round"/>
</g>
<g filter="url(#filter1_f_111_554)">
<path d="M1337 361C1345.11 360.583 1349.1 356.715 1355.83 354.855C1361.27 353.355 1368.43 349.636 1373.27 347.228C1375.31 346.213 1377.41 344.815 1379.38 343.662C1382.38 341.901 1384.89 341.764 1387.91 340.26C1391.56 338.448 1396.29 338.441 1399.76 336.31C1402.62 334.551 1404.78 333.125 1408.22 332.14C1414.21 330.422 1417.81 324.839 1424.7 324.459C1429.75 324.179 1436.55 320.501 1440.22 318.039C1444.79 314.973 1451.18 313.534 1456.18 310.632C1461.42 307.597 1471.32 302.121 1478.4 301.744C1493.22 300.955 1503.34 293.031 1515.04 287.478C1528.47 281.104 1541.72 274.305 1554.62 267.178C1558.79 264.875 1560.01 260.555 1563.45 257.85C1567.37 254.761 1570.62 251.73 1574.19 248.303C1576.14 246.434 1577.88 243.684 1580.08 242.049C1581.87 240.714 1585.25 240.196 1585.89 238.043C1586.63 235.542 1589.95 231.727 1592.58 229.649C1600.11 223.708 1607.89 220.693 1617.23 216.261C1624.44 212.837 1631.32 209.15 1638.27 205.562C1644.07 202.566 1651.84 202.036 1658.21 199.801C1665.56 197.222 1673.42 195.679 1680.72 193.107C1683.81 192.02 1687.92 192.666 1690.58 191.132C1693.32 189.552 1696.04 188.209 1699.19 187.127C1706.34 184.663 1713.75 180.765 1720.82 177.909C1724.28 176.509 1727.75 175.105 1730.97 173.41C1735.4 171.078 1740.52 171.382 1744.87 168.417C1748.76 165.769 1754.18 163.945 1759.15 162.711C1762.43 161.894 1764.64 160.149 1767.68 159.309C1770.48 158.537 1773.71 156.724 1776.51 156.566C1779.51 156.397 1787.79 156.063 1789.9 154.097C1792.21 151.943 1802.69 151.536 1806.52 150.202C1816.1 146.87 1827.64 148.197 1837.57 144.495C1852.17 139.053 1870.1 138.182 1884.44 132.425C1891.23 129.697 1899.91 129.077 1905.84 125.457C1909.55 123.194 1916.51 123.675 1921 122" stroke="#4DE8DF" stroke-width="5" stroke-linecap="round"/>
</g>
<g filter="url(#filter2_f_111_554)">
<path d="M1671.83 558.898C1667.61 567.282 1534.48 467.91 1424.47 412.466C1319.8 349.704 1259.43 324.719 1263.66 316.334C1267.88 307.95 1329.77 326.661 1439.78 382.104C1549.79 437.548 1676.06 550.514 1671.83 558.898Z" fill="black"/>
</g>
<g filter="url(#filter3_f_111_554)">
<path d="M619.182 328.048C624.927 332.273 553.24 392.795 512.542 448.136C466.861 498.791 448.309 530.249 442.564 526.024C436.818 521.799 451.038 488.177 491.736 432.836C532.434 377.494 613.436 323.823 619.182 328.048Z" fill="black"/>
</g>
<g filter="url(#filter4_b_111_554)">
<path d="M1163.32 241.829C616.477 227.145 461.427 410.925 452 521L1596 521L1345.99 312.792C1294.42 269.844 1230.4 243.631 1163.32 241.829Z" fill="url(#paint6_radial_111_554)"/>
<path d="M1163.32 241.829C616.477 227.145 461.427 410.925 452 521L1596 521L1345.99 312.792C1294.42 269.844 1230.4 243.631 1163.32 241.829Z" fill="url(#paint7_linear_111_554)" fill-opacity="0.6"/>
<path d="M1163.32 241.829C616.477 227.145 461.427 410.925 452 521L1596 521L1345.99 312.792C1294.42 269.844 1230.4 243.631 1163.32 241.829Z" fill="url(#paint8_linear_111_554)" fill-opacity="0.6"/>
</g>
<g filter="url(#filter5_f_111_554)">
<path d="M869 468L907.5 324.961L1082.93 319.746L1057 251.5C1085.43 279.309 1120.83 317.844 1133.95 324.961C1150.36 333.857 1228.91 466.888 1221.5 480.5C1215.58 491.39 1139.58 503.451 1163.41 531.93L869 468Z" fill="black"/>
<path d="M936.5 272L999.655 272L907.5 324.961M907.5 324.961L869 468L1163.41 531.93C1139.58 503.451 1215.58 491.39 1221.5 480.5C1228.91 466.888 1150.36 333.857 1133.95 324.961C1120.83 317.844 1085.43 279.309 1057 251.5L1082.93 319.746L907.5 324.961Z" stroke="black" stroke-width="11"/>
</g>
<defs>
<filter id="filter0_f_111_554" x="-73.0051" y="0.360596" width="777.006" height="421.64" filterUnits="userSpaceOnUse" color-interpolation-filters="sRGB">
<feFlood flood-opacity="0" result="BackgroundImageFix"/>
<feBlend mode="normal" in="SourceGraphic" in2="BackgroundImageFix" result="shape"/>
<feGaussianBlur stdDeviation="35" result="effect1_foregroundBlur_111_554"/>
</filter>
<filter id="filter1_f_111_554" x="1257.5" y="42.4993" width="743.001" height="398.001" filterUnits="userSpaceOnUse" color-interpolation-filters="sRGB">
<feFlood flood-opacity="0" result="BackgroundImageFix"/>
<feBlend mode="normal" in="SourceGraphic" in2="BackgroundImageFix" result="shape"/>
<feGaussianBlur stdDeviation="38.5" result="effect1_foregroundBlur_111_554"/>
</filter>
<filter id="filter2_f_111_554" x="1194.45" y="245.423" width="546.487" height="382.974" filterUnits="userSpaceOnUse" color-interpolation-filters="sRGB">
<feFlood flood-opacity="0" result="BackgroundImageFix"/>
<feBlend mode="normal" in="SourceGraphic" in2="BackgroundImageFix" result="shape"/>
<feGaussianBlur stdDeviation="34.5" result="effect1_foregroundBlur_111_554"/>
</filter>
<filter id="filter3_f_111_554" x="372.343" y="258.814" width="316.165" height="336.589" filterUnits="userSpaceOnUse" color-interpolation-filters="sRGB">
<feFlood flood-opacity="0" result="BackgroundImageFix"/>
<feBlend mode="normal" in="SourceGraphic" in2="BackgroundImageFix" result="shape"/>
<feGaussianBlur stdDeviation="34.5" result="effect1_foregroundBlur_111_554"/>
</filter>
<filter id="filter4_b_111_554" x="-548" y="-759" width="3144" height="2280" filterUnits="userSpaceOnUse" color-interpolation-filters="sRGB">
<feFlood flood-opacity="0" result="BackgroundImageFix"/>
<feGaussianBlur in="BackgroundImageFix" stdDeviation="500"/>
<feComposite in2="SourceAlpha" operator="in" result="effect1_backgroundBlur_111_554"/>
<feBlend mode="normal" in="SourceGraphic" in2="effect1_backgroundBlur_111_554" result="shape"/>
</filter>
<filter id="filter5_f_111_554" x="732.188" y="117.568" width="625.304" height="553.144" filterUnits="userSpaceOnUse" color-interpolation-filters="sRGB">
<feFlood flood-opacity="0" result="BackgroundImageFix"/>
<feBlend mode="normal" in="SourceGraphic" in2="BackgroundImageFix" result="shape"/>
<feGaussianBlur stdDeviation="65" result="effect1_foregroundBlur_111_554"/>
</filter>
<linearGradient id="paint0_linear_111_554" x1="31.5" y1="557.5" x2="476.29" y2="112.288" gradientUnits="userSpaceOnUse">
<stop/>
<stop offset="1" stop-opacity="0"/>
</linearGradient>
<linearGradient id="paint1_linear_111_554" x1="351" y1="96" x2="236.954" y2="548.254" gradientUnits="userSpaceOnUse">
<stop stop-color="#00BCC8"/>
<stop offset="0.993451" stop-opacity="0.64"/>
</linearGradient>
<linearGradient id="paint2_linear_111_554" x1="394.055" y1="68.4994" x2="133.658" y2="440.427" gradientUnits="userSpaceOnUse">
<stop stop-opacity="0.66"/>
<stop offset="0.0001" stop-opacity="0.66"/>
<stop offset="1"/>
</linearGradient>
<linearGradient id="paint3_linear_111_554" x1="502.357" y1="203.85" x2="92.3279" y2="713.981" gradientUnits="userSpaceOnUse">
<stop stop-color="#3BE1EC"/>
<stop offset="1" stop-opacity="0"/>
</linearGradient>
<linearGradient id="paint4_linear_111_554" x1="1631.72" y1="74.5038" x2="1873.53" y2="494.378" gradientUnits="userSpaceOnUse">
<stop stop-opacity="0.66"/>
<stop offset="0.0001" stop-opacity="0.66"/>
<stop offset="1"/>
</linearGradient>
<linearGradient id="paint5_linear_111_554" x1="1498.89" y1="211.05" x2="1888.61" y2="800.498" gradientUnits="userSpaceOnUse">
<stop stop-color="#3BE1EC"/>
<stop offset="1" stop-opacity="0"/>
</linearGradient>
<radialGradient id="paint6_radial_111_554" cx="0" cy="0" r="1" gradientUnits="userSpaceOnUse" gradientTransform="translate(1024 241) rotate(90) scale(437.5 1245.07)">
<stop stop-color="#F8F8F8" stop-opacity="0.47"/>
<stop offset="0.348386" stop-color="#211F1F" stop-opacity="0.41"/>
</radialGradient>
<linearGradient id="paint7_linear_111_554" x1="1006.76" y1="240.879" x2="1030.57" y2="549.107" gradientUnits="userSpaceOnUse">
<stop stop-color="#56CDBF"/>
<stop offset="1" stop-opacity="0"/>
</linearGradient>
<linearGradient id="paint8_linear_111_554" x1="1050.5" y1="547.5" x2="977" y2="56" gradientUnits="userSpaceOnUse">
<stop/>
<stop offset="1" stop-opacity="0"/>
</linearGradient>
</defs>
</svg>
