<svg width="1082" height="453" viewBox="0 0 1082 453" fill="none" xmlns="http://www.w3.org/2000/svg">
<path d="M498.798 178.303C401.174 74.4179 124.572 16.1488 0 0V453H1082C928.276 405.885 596.422 282.189 498.798 178.303Z" fill="#D9D9D9"/>
<path d="M498.798 178.303C401.174 74.4179 124.572 16.1488 0 0V453H1082C928.276 405.885 596.422 282.189 498.798 178.303Z" fill="url(#paint0_linear_114_79)" fill-opacity="0.6"/>
<path d="M498.798 178.303C401.174 74.4179 124.572 16.1488 0 0V453H1082C928.276 405.885 596.422 282.189 498.798 178.303Z" fill="url(#paint1_linear_114_79)" fill-opacity="0.4"/>
<path d="M498.798 178.303C401.174 74.4179 124.572 16.1488 0 0V453H1082C928.276 405.885 596.422 282.189 498.798 178.303Z" fill="#D9D9D9"/>
<path d="M498.798 178.303C401.174 74.4179 124.572 16.1488 0 0V453H1082C928.276 405.885 596.422 282.189 498.798 178.303Z" fill="url(#paint2_linear_114_79)"/>
<path d="M498.798 178.303C401.174 74.4179 124.572 16.1488 0 0V453H1082C928.276 405.885 596.422 282.189 498.798 178.303Z" fill="url(#paint3_linear_114_79)" fill-opacity="0.4"/>
<defs>
<linearGradient id="paint0_linear_114_79" x1="31.5" y1="489.5" x2="476.29" y2="44.2879" gradientUnits="userSpaceOnUse">
<stop/>
<stop offset="1" stop-opacity="0"/>
</linearGradient>
<linearGradient id="paint1_linear_114_79" x1="351" y1="28" x2="236.954" y2="480.254" gradientUnits="userSpaceOnUse">
<stop stop-color="#00BCC8"/>
<stop offset="0.993451" stop-opacity="0.64"/>
</linearGradient>
<linearGradient id="paint2_linear_114_79" x1="394.055" y1="0.499379" x2="133.658" y2="372.427" gradientUnits="userSpaceOnUse">
<stop stop-opacity="0.66"/>
<stop offset="0.0001" stop-opacity="0.66"/>
<stop offset="1"/>
</linearGradient>
<linearGradient id="paint3_linear_114_79" x1="502.357" y1="135.85" x2="92.3279" y2="645.981" gradientUnits="userSpaceOnUse">
<stop stop-color="#3BE1EC"/>
<stop offset="1" stop-opacity="0"/>
</linearGradient>
</defs>
</svg>
