<svg width="688" height="851" viewBox="0 0 688 851" fill="none" xmlns="http://www.w3.org/2000/svg">
<g filter="url(#filter0_d_114_49)">
<g filter="url(#filter1_b_114_49)">
<path d="M233.885 16L477.316 528.22L65.9961 535.449L233.885 16Z" fill="url(#paint0_linear_114_49)"/>
</g>
<g filter="url(#filter2_b_114_49)">
<path d="M233.884 16L68.3824 528.22H0L233.884 16Z" fill="url(#paint1_linear_114_49)"/>
</g>
<g filter="url(#filter3_di_114_49)">
<path d="M470 512L234 16L198.392 125.494C196.274 132.008 201.343 138.623 208.184 138.273C211.498 138.103 214.499 136.262 216.153 133.385L225 118C232.215 108.225 247.145 109.267 252.931 119.95L255.202 124.142C258.351 129.955 260 136.463 260 143.074V215L279 239L285 279.5L273.5 296.5V335.5C274.167 346.333 275.5 368.3 275.5 369.5C275.5 370.7 277.833 381.333 279 386.5H299L306 392.5L337.5 373C340.833 374.667 347.4 378.4 347 380C346.6 381.6 343.5 407.333 342 420L381 443.5L340 516.5L470 512Z" fill="#D9D9D9" fill-opacity="0.23" shape-rendering="crispEdges"/>
</g>
</g>
<defs>
<filter id="filter0_d_114_49" x="0" y="16" width="687.315" height="834.449" filterUnits="userSpaceOnUse" color-interpolation-filters="sRGB">
<feFlood flood-opacity="0" result="BackgroundImageFix"/>
<feColorMatrix in="SourceAlpha" type="matrix" values="0 0 0 0 0 0 0 0 0 0 0 0 0 0 0 0 0 0 127 0" result="hardAlpha"/>
<feOffset dx="172" dy="277"/>
<feGaussianBlur stdDeviation="19"/>
<feComposite in2="hardAlpha" operator="out"/>
<feColorMatrix type="matrix" values="0 0 0 0 0 0 0 0 0 0 0 0 0 0 0 0 0 0 0.4 0"/>
<feBlend mode="normal" in2="BackgroundImageFix" result="effect1_dropShadow_114_49"/>
<feBlend mode="normal" in="SourceGraphic" in2="effect1_dropShadow_114_49" result="shape"/>
</filter>
<filter id="filter1_b_114_49" x="-83.0039" y="-133" width="709.319" height="817.449" filterUnits="userSpaceOnUse" color-interpolation-filters="sRGB">
<feFlood flood-opacity="0" result="BackgroundImageFix"/>
<feGaussianBlur in="BackgroundImageFix" stdDeviation="74.5"/>
<feComposite in2="SourceAlpha" operator="in" result="effect1_backgroundBlur_114_49"/>
<feBlend mode="normal" in="SourceGraphic" in2="effect1_backgroundBlur_114_49" result="shape"/>
</filter>
<filter id="filter2_b_114_49" x="-69" y="-53" width="371.885" height="650.22" filterUnits="userSpaceOnUse" color-interpolation-filters="sRGB">
<feFlood flood-opacity="0" result="BackgroundImageFix"/>
<feGaussianBlur in="BackgroundImageFix" stdDeviation="34.5"/>
<feComposite in2="SourceAlpha" operator="in" result="effect1_backgroundBlur_114_49"/>
<feBlend mode="normal" in="SourceGraphic" in2="effect1_backgroundBlur_114_49" result="shape"/>
</filter>
<filter id="filter3_di_114_49" x="173.905" y="0" width="312.095" height="540.5" filterUnits="userSpaceOnUse" color-interpolation-filters="sRGB">
<feFlood flood-opacity="0" result="BackgroundImageFix"/>
<feColorMatrix in="SourceAlpha" type="matrix" values="0 0 0 0 0 0 0 0 0 0 0 0 0 0 0 0 0 0 127 0" result="hardAlpha"/>
<feOffset dx="-4" dy="4"/>
<feGaussianBlur stdDeviation="10"/>
<feComposite in2="hardAlpha" operator="out"/>
<feColorMatrix type="matrix" values="0 0 0 0 0 0 0 0 0 0 0 0 0 0 0 0 0 0 0.25 0"/>
<feBlend mode="normal" in2="BackgroundImageFix" result="effect1_dropShadow_114_49"/>
<feBlend mode="normal" in="SourceGraphic" in2="effect1_dropShadow_114_49" result="shape"/>
<feColorMatrix in="SourceAlpha" type="matrix" values="0 0 0 0 0 0 0 0 0 0 0 0 0 0 0 0 0 0 127 0" result="hardAlpha"/>
<feOffset dx="-19" dy="-5"/>
<feGaussianBlur stdDeviation="19.5"/>
<feComposite in2="hardAlpha" operator="arithmetic" k2="-1" k3="1"/>
<feColorMatrix type="matrix" values="0 0 0 0 1 0 0 0 0 1 0 0 0 0 1 0 0 0 0.4 0"/>
<feBlend mode="normal" in2="shape" result="effect2_innerShadow_114_49"/>
</filter>
<linearGradient id="paint0_linear_114_49" x1="245.666" y1="591.544" x2="303.166" y2="-123.956" gradientUnits="userSpaceOnUse">
<stop stop-color="#2898FF"/>
<stop offset="1" stop-color="white" stop-opacity="0"/>
</linearGradient>
<linearGradient id="paint1_linear_114_49" x1="132.166" y1="362.544" x2="318.666" y2="-43.9563" gradientUnits="userSpaceOnUse">
<stop stop-color="#005773"/>
<stop offset="1" stop-color="white" stop-opacity="0"/>
</linearGradient>
</defs>
</svg>
