<svg width="536" height="578" viewBox="0 0 536 578" fill="none" xmlns="http://www.w3.org/2000/svg">
<g filter="url(#filter0_d_114_53)">
<g filter="url(#filter1_b_114_53)">
<path d="M276.885 25L520.316 537.22L108.996 544.449L276.885 25Z" fill="url(#paint0_linear_114_53)"/>
</g>
<g filter="url(#filter2_di_114_53)">
<path d="M277 30.5L279 29.5L384.5 251.5L387.5 256.5L340 258L334 240.5L300 235L275 240.5L278.5 194.5L260 171L266 139L283.5 122L289.5 78.5L285 77.5L279 77L283.5 73L280.5 64.5L278 63.5L280.5 60L278.5 54.5C278 54.1667 277 53.4 277 53C277 52.6 277.667 51.1667 278 50.5V49H275L276 45.5L277.5 40L278.5 37.5L276.5 35.5L277 34L277.5 31L275.5 32.5L276 30.5H277Z" fill="#D9D9D9" fill-opacity="0.39" shape-rendering="crispEdges"/>
</g>
<g filter="url(#filter3_b_114_53)">
<path d="M276.884 25L111.382 537.22H43L276.884 25Z" fill="url(#paint1_linear_114_53)"/>
</g>
</g>
<defs>
<filter id="filter0_d_114_53" x="0" y="0" width="535.315" height="577.449" filterUnits="userSpaceOnUse" color-interpolation-filters="sRGB">
<feFlood flood-opacity="0" result="BackgroundImageFix"/>
<feColorMatrix in="SourceAlpha" type="matrix" values="0 0 0 0 0 0 0 0 0 0 0 0 0 0 0 0 0 0 127 0" result="hardAlpha"/>
<feOffset dx="-14" dy="4"/>
<feGaussianBlur stdDeviation="14.5"/>
<feComposite in2="hardAlpha" operator="out"/>
<feColorMatrix type="matrix" values="0 0 0 0 0 0 0 0 0 0 0 0 0 0 0 0 0 0 0.5 0"/>
<feBlend mode="normal" in2="BackgroundImageFix" result="effect1_dropShadow_114_53"/>
<feBlend mode="normal" in="SourceGraphic" in2="effect1_dropShadow_114_53" result="shape"/>
</filter>
<filter id="filter1_b_114_53" x="-57.0039" y="-141" width="743.319" height="851.449" filterUnits="userSpaceOnUse" color-interpolation-filters="sRGB">
<feFlood flood-opacity="0" result="BackgroundImageFix"/>
<feGaussianBlur in="BackgroundImageFix" stdDeviation="83"/>
<feComposite in2="SourceAlpha" operator="in" result="effect1_backgroundBlur_114_53"/>
<feBlend mode="normal" in="SourceGraphic" in2="effect1_backgroundBlur_114_53" result="shape"/>
</filter>
<filter id="filter2_di_114_53" x="232" y="9.5" width="175.5" height="276.5" filterUnits="userSpaceOnUse" color-interpolation-filters="sRGB">
<feFlood flood-opacity="0" result="BackgroundImageFix"/>
<feColorMatrix in="SourceAlpha" type="matrix" values="0 0 0 0 0 0 0 0 0 0 0 0 0 0 0 0 0 0 127 0" result="hardAlpha"/>
<feOffset dx="-4" dy="4"/>
<feGaussianBlur stdDeviation="12"/>
<feComposite in2="hardAlpha" operator="out"/>
<feColorMatrix type="matrix" values="0 0 0 0 0 0 0 0 0 0 0 0 0 0 0 0 0 0 0.25 0"/>
<feBlend mode="normal" in2="BackgroundImageFix" result="effect1_dropShadow_114_53"/>
<feBlend mode="normal" in="SourceGraphic" in2="effect1_dropShadow_114_53" result="shape"/>
<feColorMatrix in="SourceAlpha" type="matrix" values="0 0 0 0 0 0 0 0 0 0 0 0 0 0 0 0 0 0 127 0" result="hardAlpha"/>
<feOffset dx="-22" dy="4"/>
<feGaussianBlur stdDeviation="23.5"/>
<feComposite in2="hardAlpha" operator="arithmetic" k2="-1" k3="1"/>
<feColorMatrix type="matrix" values="0 0 0 0 1 0 0 0 0 1 0 0 0 0 1 0 0 0 0.25 0"/>
<feBlend mode="normal" in2="shape" result="effect2_innerShadow_114_53"/>
</filter>
<filter id="filter3_b_114_53" x="-57" y="-75" width="433.885" height="712.22" filterUnits="userSpaceOnUse" color-interpolation-filters="sRGB">
<feFlood flood-opacity="0" result="BackgroundImageFix"/>
<feGaussianBlur in="BackgroundImageFix" stdDeviation="50"/>
<feComposite in2="SourceAlpha" operator="in" result="effect1_backgroundBlur_114_53"/>
<feBlend mode="normal" in="SourceGraphic" in2="effect1_backgroundBlur_114_53" result="shape"/>
</filter>
<linearGradient id="paint0_linear_114_53" x1="161" y1="209.5" x2="475" y2="91" gradientUnits="userSpaceOnUse">
<stop stop-color="#68ADEC"/>
<stop offset="1" stop-color="#D9AFD9" stop-opacity="0"/>
</linearGradient>
<linearGradient id="paint1_linear_114_53" x1="159.942" y1="25" x2="159.942" y2="537.22" gradientUnits="userSpaceOnUse">
<stop stop-color="#484848"/>
<stop offset="1" stop-color="#006EDC" stop-opacity="0"/>
</linearGradient>
</defs>
</svg>
