<svg width="778" height="845" viewBox="0 0 778 845" fill="none" xmlns="http://www.w3.org/2000/svg">
<path d="M396.781 0L0.000427246 832.327L670.432 844.073L396.781 0Z" fill="url(#paint0_linear_124_2)"/>
<g filter="url(#filter0_bdi_124_2)">
<path d="M418 63.5L368 61L261 285.5L266 286.5L292.5 281.5L309 286.5L348.5 273L418 267L456 237.5L445 208L400 148L394.5 134L373.5 123L376 114.5L397.5 88L418 83.5L394.5 74L418 63.5Z" fill="#D9D9D9" fill-opacity="0.38" shape-rendering="crispEdges"/>
</g>
<path d="M396.78 0L666.54 832.327H778L396.78 0Z" fill="url(#paint1_linear_124_2)"/>
<defs>
<filter id="filter0_bdi_124_2" x="211" y="11" width="295" height="325.5" filterUnits="userSpaceOnUse" color-interpolation-filters="sRGB">
<feFlood flood-opacity="0" result="BackgroundImageFix"/>
<feGaussianBlur in="BackgroundImageFix" stdDeviation="25"/>
<feComposite in2="SourceAlpha" operator="in" result="effect1_backgroundBlur_124_2"/>
<feColorMatrix in="SourceAlpha" type="matrix" values="0 0 0 0 0 0 0 0 0 0 0 0 0 0 0 0 0 0 127 0" result="hardAlpha"/>
<feOffset dx="3" dy="4"/>
<feGaussianBlur stdDeviation="2"/>
<feComposite in2="hardAlpha" operator="out"/>
<feColorMatrix type="matrix" values="0 0 0 0 0 0 0 0 0 0 0 0 0 0 0 0 0 0 0.25 0"/>
<feBlend mode="normal" in2="effect1_backgroundBlur_124_2" result="effect2_dropShadow_124_2"/>
<feBlend mode="normal" in="SourceGraphic" in2="effect2_dropShadow_124_2" result="shape"/>
<feColorMatrix in="SourceAlpha" type="matrix" values="0 0 0 0 0 0 0 0 0 0 0 0 0 0 0 0 0 0 127 0" result="hardAlpha"/>
<feOffset dx="5" dy="8"/>
<feGaussianBlur stdDeviation="10"/>
<feComposite in2="hardAlpha" operator="arithmetic" k2="-1" k3="1"/>
<feColorMatrix type="matrix" values="0 0 0 0 1 0 0 0 0 1 0 0 0 0 1 0 0 0 0.25 0"/>
<feBlend mode="normal" in2="shape" result="effect3_innerShadow_124_2"/>
</filter>
<linearGradient id="paint0_linear_124_2" x1="335.216" y1="0" x2="335.216" y2="844.073" gradientUnits="userSpaceOnUse">
<stop stop-color="#2898FF"/>
<stop offset="1" stop-color="#D9AFD9" stop-opacity="0"/>
</linearGradient>
<linearGradient id="paint1_linear_124_2" x1="587.39" y1="0" x2="587.39" y2="832.327" gradientUnits="userSpaceOnUse">
<stop stop-color="#484848"/>
<stop offset="1" stop-color="#006EDC" stop-opacity="0"/>
</linearGradient>
</defs>
</svg>
