<svg width="1914" height="416" viewBox="0 0 1914 416" fill="none" xmlns="http://www.w3.org/2000/svg">
<g filter="url(#filter0_b_111_541)">
<path d="M-6 2.45669H140L426 43.4016L928.5 59.7795L1261.66 55.8979C1367.37 54.6663 1472.8 44.6415 1576.85 25.9272L1694.04 4.84823C1711.98 1.62249 1730.17 0 1748.39 0H1914V520H-6V2.45669Z" fill="url(#paint0_radial_111_541)"/>
<path d="M-6 2.45669H140L426 43.4016L928.5 59.7795L1261.66 55.8979C1367.37 54.6663 1472.8 44.6415 1576.85 25.9272L1694.04 4.84823C1711.98 1.62249 1730.17 0 1748.39 0H1914V520H-6V2.45669Z" fill="url(#paint1_radial_111_541)" fill-opacity="0.7"/>
<path d="M425.717 45.3814L425.825 45.3969L425.935 45.4005L928.435 61.7785L928.479 61.7799L928.523 61.7794L1261.68 57.8978C1367.5 56.6648 1473.04 46.6295 1577.2 27.8956L1694.4 6.81665C1712.22 3.61192 1730.28 2 1748.39 2H1912V518H-4V4.45669H139.858L425.717 45.3814Z" stroke="url(#paint2_linear_111_541)" stroke-opacity="0.33" stroke-width="4"/>
</g>
<defs>
<filter id="filter0_b_111_541" x="-342" y="-336" width="2592" height="1192" filterUnits="userSpaceOnUse" color-interpolation-filters="sRGB">
<feFlood flood-opacity="0" result="BackgroundImageFix"/>
<feGaussianBlur in="BackgroundImageFix" stdDeviation="168"/>
<feComposite in2="SourceAlpha" operator="in" result="effect1_backgroundBlur_111_541"/>
<feBlend mode="normal" in="SourceGraphic" in2="effect1_backgroundBlur_111_541" result="shape"/>
</filter>
<radialGradient id="paint0_radial_111_541" cx="0" cy="0" r="1" gradientUnits="userSpaceOnUse" gradientTransform="translate(981.5 146) rotate(-94.958) scale(318.191 1170.51)">
<stop stop-color="#00D4E1"/>
<stop offset="1" stop-color="#D9D9D9" stop-opacity="0"/>
</radialGradient>
<radialGradient id="paint1_radial_111_541" cx="0" cy="0" r="1" gradientUnits="userSpaceOnUse" gradientTransform="translate(965.5 119.968) rotate(-86.0218) scale(302.698 3397.83)">
<stop stop-color="#3D5BC8" stop-opacity="0"/>
<stop offset="1"/>
</radialGradient>
<linearGradient id="paint2_linear_111_541" x1="954" y1="-194.898" x2="954" y2="395.528" gradientUnits="userSpaceOnUse">
<stop stop-color="white"/>
<stop offset="1" stop-color="white" stop-opacity="0.43"/>
</linearGradient>
</defs>
</svg>
